<?xml version="1.0" encoding="UTF-8" standalone="no"?>
<svg
   viewBox="0 0 512 512"
   version="1.1"
   id="svg825"
   sodipodi:docname="zoom.svg"
   width="512"
   height="512"
   inkscape:version="1.1.1 (c3084ef, 2021-09-22)"
   xmlns:inkscape="http://www.inkscape.org/namespaces/inkscape"
   xmlns:sodipodi="http://sodipodi.sourceforge.net/DTD/sodipodi-0.dtd"
   xmlns="http://www.w3.org/2000/svg"
   xmlns:svg="http://www.w3.org/2000/svg">
  <defs
     id="defs829" />
  <sodipodi:namedview
     id="namedview827"
     pagecolor="#ffffff"
     bordercolor="#111111"
     borderopacity="1"
     inkscape:pageshadow="0"
     inkscape:pageopacity="0"
     inkscape:pagecheckerboard="1"
     showgrid="false"
     inkscape:zoom="1.7050781"
     inkscape:cx="237.81901"
     inkscape:cy="282.97824"
     inkscape:window-width="1920"
     inkscape:window-height="1147"
     inkscape:window-x="0"
     inkscape:window-y="25"
     inkscape:window-maximized="1"
     inkscape:current-layer="svg825" />
  <path
     id="zoom"
     d="M 341.53208,5.9999972 H 170.46791 A 164.46791,164.46791 0 0 0 5.9999972,170.46791 V 341.53208 A 164.46791,164.46791 0 0 0 170.46791,506 H 341.53208 A 164.46791,164.46791 0 0 0 506,341.53208 V 170.46791 A 164.46791,164.46791 0 0 0 341.53208,5.9999972 Z M 326.16187,320.28041 a 23.324375,23.324375 0 0 1 -23.32438,23.32375 H 157.4 A 55.925208,55.925208 0 0 1 101.47478,287.67874 V 194.0625 a 25.666666,25.666666 0 0 1 25.66668,-25.66667 h 139.76187 a 59.257708,59.257708 0 0 1 59.25791,59.25792 z m 86.28396,8.45063 a 14.873958,14.873958 0 0 1 -25.37854,10.53 l -39.22021,-39.12646 a 34.471041,34.471041 0 0 1 -10.125,-24.40417 V 239.60416 A 34.471458,34.471458 0 0 1 347.84708,215.2 l 39.22021,-39.12625 a 14.87375,14.87375 0 0 1 25.37854,10.52979 z"
     fill="#262626"
     style="stroke-width:1;fill:#000000;fill-opacity:1" />
</svg>
