<?xml version="1.0" encoding="UTF-8" standalone="no"?>
<svg
   width="512"
   height="512"
   viewBox="0 0 512 512"
   role="img"
   version="1.1"
   id="svg828"
   sodipodi:docname="icon.svg"
   inkscape:version="1.1.1 (c3084ef, 2021-09-22)"
   xmlns:inkscape="http://www.inkscape.org/namespaces/inkscape"
   xmlns:sodipodi="http://sodipodi.sourceforge.net/DTD/sodipodi-0.dtd"
   xmlns="http://www.w3.org/2000/svg"
   xmlns:svg="http://www.w3.org/2000/svg"
   xmlns:rdf="http://www.w3.org/1999/02/22-rdf-syntax-ns#"
   xmlns:cc="http://creativecommons.org/ns#"
   xmlns:dc="http://purl.org/dc/elements/1.1/">
  <defs
     id="defs832">
    <inkscape:path-effect
       effect="fillet_chamfer"
       id="path-effect1019"
       is_visible="true"
       lpeversion="1"
       satellites_param="F,0,0,1,0,25,0,1 @ F,0,0,1,0,25,0,1 @ F,0,0,1,0,25,0,1 @ F,0,0,1,0,25,0,1"
       unit="px"
       method="auto"
       mode="F"
       radius="25"
       chamfer_steps="1"
       flexible="false"
       use_knot_distance="true"
       apply_no_radius="true"
       apply_with_radius="true"
       only_selected="false"
       hide_knots="false" />
    <inkscape:path-effect
       effect="fillet_chamfer"
       id="path-effect2880"
       is_visible="true"
       lpeversion="1"
       satellites_param="F,0,0,1,0,5,0,1 @ F,0,0,1,0,5,0,1 @ F,0,0,1,0,5,0,1 @ F,0,0,1,0,5,0,1"
       unit="px"
       method="auto"
       mode="F"
       radius="10"
       chamfer_steps="1"
       flexible="false"
       use_knot_distance="true"
       apply_no_radius="true"
       apply_with_radius="true"
       only_selected="false"
       hide_knots="false" />
  </defs>
  <sodipodi:namedview
     id="namedview830"
     pagecolor="#ffffff"
     bordercolor="#111111"
     borderopacity="1"
     inkscape:pageshadow="0"
     inkscape:pageopacity="0"
     inkscape:pagecheckerboard="1"
     showgrid="false"
     inkscape:zoom="1.6075631"
     inkscape:cx="232.33925"
     inkscape:cy="243.53632"
     inkscape:window-width="1920"
     inkscape:window-height="1147"
     inkscape:window-x="-1"
     inkscape:window-y="25"
     inkscape:window-maximized="0"
     inkscape:current-layer="svg828" />
  <title
     id="title824">WireGuard icon</title>
  <metadata
     id="metadata914">
    <rdf:RDF>
      <cc:Work
         rdf:about="">
        <dc:title>WireGuard icon</dc:title>
      </cc:Work>
    </rdf:RDF>
  </metadata>
  <g
     id="g2845"
     transform="matrix(1.0335433,0,0,1.0335433,5.4156714,-8.5468833)"
     style="stroke-width:0.967553">
    <path
       style="fill:#000000;fill-opacity:1;stroke:none;stroke-width:30.3612;stroke-linecap:square;stroke-miterlimit:1.6;paint-order:markers stroke fill"
       d="m 171.96287,330.57899 c -16.20625,-9.74752 -30.64068,-26.83876 -37.96501,-44.9529 -6.02305,-14.89587 -8.11663,-26.76079 -7.52442,-42.64291 0.56434,-15.13467 3.65615,-27.40681 10.18987,-40.44612 15.03028,-29.99582 45.2545,-50.98696 79.41298,-55.15341 8.53441,-1.04098 24.42506,-0.41077 32.43651,1.28641 26.85556,5.6892 49.62921,21.06102 63.06545,42.56809 4.11241,6.58265 6.018,11.69219 6.93751,18.6019 2.19771,16.51478 -6.15617,36.5699 -21.71333,52.12705 -7.25464,7.25464 -14.05412,12.05317 -23.25319,16.41025 -5.69666,2.69818 -18.09644,7.14799 -19.9185,7.14799 -0.54634,0 0.57097,-1.54936 2.64822,-3.67225 10.37345,-10.60139 14.93901,-21.26589 14.93901,-34.89544 0,-12.87835 -4.04597,-22.88799 -12.91503,-31.95153 -8.82476,-9.01825 -19.48847,-13.45762 -32.49532,-13.52801 -8.33978,-0.0451 -13.62833,1.17374 -21.15002,4.87451 -10.57982,5.2054 -19.42815,15.74418 -22.60174,26.91972 -3.37121,11.87142 -2.37322,25.52122 2.5751,35.22075 5.62905,11.03383 19.72835,19.93948 37.71367,23.82136 l 4.93481,1.06511 -6.17893,3.27959 c -14.51794,7.70569 -26.92302,17.6244 -36.12106,28.88127 -6.89282,8.43565 -7.18229,8.5477 -13.01658,5.03857 z"
       id="path2491" />
    <path
       style="fill:#000000;fill-opacity:1;stroke:none;stroke-width:30.3612;stroke-linecap:square;stroke-miterlimit:1.6;paint-order:markers stroke fill"
       d="m 258.15472,502.97579 c -17.23643,-2.4842 -31.65511,-8.02946 -46.40286,-17.846 -9.56412,-6.36616 -21.95718,-18.81725 -28.40508,-28.53807 -21.67735,-32.68066 -24.31595,-71.81015 -7.13654,-105.83224 9.10756,-18.0366 20.70795,-31.2692 37.0624,-42.27719 11.30389,-7.60852 20.69289,-11.52166 37.15582,-15.48577 16.2026,-3.90144 27.32639,-8.55286 38.78746,-16.21905 11.48827,-7.68437 24.85471,-22.50984 30.4993,-33.82846 4.9766,-9.97918 7.55765,-23.72052 6.24971,-33.27313 -1.8219,-13.30647 -5.21593,-20.57171 -14.9855,-32.07787 -9.31255,-10.96792 -18.60011,-19.21871 -44.11588,-39.19124 l -25.19341,-19.72021 -10.57501,0.15886 c -5.81626,0.0874 -12.25458,0.10701 -14.30737,0.0436 -3.50155,-0.10811 -3.65542,-0.17491 -2.48824,-1.08015 0.68427,-0.5307 3.76346,-2.23181 6.84265,-3.78024 3.0792,-1.54843 7.24375,-3.80653 9.25455,-5.018 l 3.656,-2.20267 -1.47879,-1.13961 c -2.3936,-1.84458 -9.8282,-4.71698 -14.85308,-5.738566 -2.566,-0.521677 -9.14428,-1.243808 -14.6184,-1.604727 -13.41633,-0.884568 -17.68919,-1.338647 -18.04719,-1.917896 -0.4851,-0.784921 6.15558,-6.503185 11.21247,-9.655006 5.62579,-3.506394 13.09539,-6.831924 17.63931,-7.853159 l 3.33987,-0.750627 -0.40591,-3.961978 c -0.61454,-5.998283 -2.14869,-13.31141 -3.23097,-15.401772 -1.40984,-2.723003 -3.58023,-4.230344 -13.4475,-9.339343 l -8.85832,-4.586593 4.16047,-1.946917 c 8.42674,-3.943349 18.56296,-4.509356 32.52015,-1.815927 10.94708,2.112543 17.6901,1.443066 24.96425,-2.47856 3.75324,-2.023438 6.81325,-4.259444 6.38236,-4.663703 -0.13399,-0.125719 -4.5825,-1.968765 -9.88556,-4.095656 -9.04246,-3.626652 -26.33846,-11.825429 -27.65054,-13.107114 -1.04257,-1.018414 1.46345,-0.654179 15.52038,2.255795 11.58618,2.398493 15.18596,2.889033 23.46875,3.198075 10.25449,0.382608 11.67762,0.102523 11.67762,-2.298264 0,-0.870708 -1.22584,-1.372063 -6.06508,-2.480555 -28.38741,-6.502513 -33.90179,-7.9094145 -32.47198,-8.2846924 3.30254,-0.8668162 25.88095,-1.1963552 32.93852,-0.4807481 14.64971,1.4854175 22.40748,3.7098995 38.41899,11.0163535 15.3864,7.021205 16.11472,7.503408 21.87863,14.485425 4.30558,5.215487 5.59357,6.359779 8.75577,7.778891 5.4462,2.444109 11.16805,3.446293 19.74562,3.458451 l 7.62022,0.0108 v -1.541812 c 0,-1.443508 0.10908,-1.495461 1.71067,-0.814839 3.67205,1.560496 10.2126,6.317709 12.91327,9.392346 2.97088,3.382263 6.52609,9.76993 6.52609,11.725449 0,1.092783 -1.14296,1.144762 -25.17231,1.144762 -22.32061,0 -25.42134,0.118759 -27.37062,1.048302 -1.20907,0.576567 -2.19831,1.224838 -2.19831,1.440603 0,0.215765 1.04972,0.978734 2.33272,1.695487 2.1708,1.212734 3.49854,1.320723 19.12833,1.555837 9.23759,0.138962 17.29351,0.476883 17.90206,0.750944 1.0182,0.458539 0.97359,0.678487 -0.55927,2.757609 -2.58075,3.500435 -7.21146,8.172593 -9.06961,9.150782 -2.43572,1.282239 -4.16953,1.095242 -6.80978,-0.734447 l -2.33582,-1.618723 -19.4697,-0.04211 c -20.58673,-0.04454 -36.62776,1.181403 -39.50539,3.01916 -0.75564,0.482588 -1.70995,1.999057 -2.12068,3.369933 -0.92627,3.091624 -0.0602,6.103636 3.20973,11.162871 2.44637,3.785009 5.42011,6.196649 27.65549,22.428039 17.23393,12.58044 23.62916,17.70516 31.01759,24.85551 13.82507,13.37957 21.80243,28.0249 25.00155,45.89934 1.29672,7.24518 1.29796,22.72855 0.002,31.32924 -3.83413,25.45538 -14.12049,49.64692 -28.80303,67.73924 -7.32261,9.02315 -16.79937,18.00039 -25.78835,24.42902 -8.06185,5.76557 -14.25435,8.70944 -57.37756,27.27685 -10.24305,4.41031 -20.45303,9.20688 -22.68886,10.65905 -5.08597,3.30334 -12.15617,10.41112 -14.8784,14.95748 -6.1823,10.32501 -8.49687,19.45885 -8.0579,31.79842 0.24883,6.99475 0.55442,8.89991 2.17625,13.56755 2.52321,7.2618 6.23198,13.33104 11.59875,18.98086 11.4342,12.03723 26.03736,18.15666 41.454,17.37121 7.8341,-0.39913 12.90101,-1.62785 19.70268,-4.77785 11.93763,-5.52857 20.76278,-14.23062 25.95771,-25.59562 3.20022,-7.00116 4.19191,-11.65948 4.55183,-21.38147 0.28237,-7.6275 0.14875,-9.43238 -1.05926,-14.30737 -4.57802,-18.4749 -17.93382,-31.89054 -37.76705,-37.93627 l -6.34278,-1.93347 5.72072,-2.38698 c 9.49932,-3.96361 19.49909,-9.26736 35.07608,-18.6039 8.14598,-4.88255 15.32103,-9.06671 15.94455,-9.29813 1.64877,-0.61196 3.26035,0.44716 8.72756,5.73569 16.22647,15.69616 26.60069,34.297 30.85394,55.32073 5.84486,28.89099 0.46516,57.35503 -15.3621,81.28101 -15.32327,23.16411 -41.08524,40.2548 -68.91617,45.71952 -8.77117,1.72225 -24.24863,2.18488 -32.6392,0.97558 z m 63.01262,-452.500905 2.98388,-1.756903 -2.51912,-2.275877 c -2.9203,-2.638308 -5.2421,-2.935064 -7.71916,-0.986608 -1.99264,1.567414 -2.09252,3.435341 -0.28649,5.35778 1.78299,1.897902 3.90452,1.802699 7.54089,-0.338392 z"
       id="path2604" />
    <path
       style="fill:#000000;fill-opacity:1;stroke:none;stroke-width:30.3612;stroke-linecap:square;stroke-miterlimit:1.6;paint-order:markers stroke fill"
       d="m 101.109,394.48707 c 6.61367,-28.35031 39.81547,-54.84255 68.73222,-54.84255 h 4.886 l -2.17894,3.26581 c -3.09216,4.63452 -7.36798,13.61482 -9.24515,19.41709 -1.46358,4.52391 -2.59081,9.75509 -3.88932,18.04938 l -0.48495,3.09768 -12.74854,2.25695 c -15.55123,2.75312 -20.21011,3.92941 -34.37838,8.68002 -6.08015,2.03867 -11.16399,3.70667 -11.29741,3.70667 -0.13343,0 0.13858,-1.63397 0.60447,-3.63105 z"
       id="path2643" />
  </g>
</svg>
