<?xml version="1.0" encoding="UTF-8" standalone="no"?>
<svg
   width="512"
   height="512"
   viewBox="0 0 512 512"
   role="img"
   version="1.1"
   id="svg828"
   sodipodi:docname="icon.svg"
   inkscape:version="1.1.1 (c3084ef, 2021-09-22)"
   xmlns:inkscape="http://www.inkscape.org/namespaces/inkscape"
   xmlns:sodipodi="http://sodipodi.sourceforge.net/DTD/sodipodi-0.dtd"
   xmlns="http://www.w3.org/2000/svg"
   xmlns:svg="http://www.w3.org/2000/svg"
   xmlns:rdf="http://www.w3.org/1999/02/22-rdf-syntax-ns#"
   xmlns:cc="http://creativecommons.org/ns#"
   xmlns:dc="http://purl.org/dc/elements/1.1/">
  <defs
     id="defs832">
    <inkscape:path-effect
       effect="fillet_chamfer"
       id="path-effect1019"
       is_visible="true"
       lpeversion="1"
       satellites_param="F,0,0,1,0,25,0,1 @ F,0,0,1,0,25,0,1 @ F,0,0,1,0,25,0,1 @ F,0,0,1,0,25,0,1"
       unit="px"
       method="auto"
       mode="F"
       radius="25"
       chamfer_steps="1"
       flexible="false"
       use_knot_distance="true"
       apply_no_radius="true"
       apply_with_radius="true"
       only_selected="false"
       hide_knots="false" />
    <inkscape:path-effect
       effect="fillet_chamfer"
       id="path-effect2880"
       is_visible="true"
       lpeversion="1"
       satellites_param="F,0,0,1,0,5,0,1 @ F,0,0,1,0,5,0,1 @ F,0,0,1,0,5,0,1 @ F,0,0,1,0,5,0,1"
       unit="px"
       method="auto"
       mode="F"
       radius="10"
       chamfer_steps="1"
       flexible="false"
       use_knot_distance="true"
       apply_no_radius="true"
       apply_with_radius="true"
       only_selected="false"
       hide_knots="false" />
    <clipPath
       clipPathUnits="userSpaceOnUse"
       id="clipPath1949">
      <circle
         style="fill:#000000;fill-opacity:1;stroke:none;stroke-width:40;stroke-linecap:round;stroke-miterlimit:5;stroke-dasharray:none;stroke-opacity:1;paint-order:markers stroke fill"
         id="circle1951"
         cx="255.04442"
         cy="308.54153"
         r="303.27652" />
    </clipPath>
    <clipPath
       clipPathUnits="userSpaceOnUse"
       id="clipPath1974">
      <circle
         style="fill:#000000;fill-opacity:1;stroke:none;stroke-width:40;stroke-linecap:round;stroke-miterlimit:5;stroke-dasharray:none;stroke-opacity:1;paint-order:markers stroke fill"
         id="circle1976"
         cx="270.92944"
         cy="226.04704"
         r="256" />
    </clipPath>
  </defs>
  <sodipodi:namedview
     id="namedview830"
     pagecolor="#ffffff"
     bordercolor="#111111"
     borderopacity="1"
     inkscape:pageshadow="0"
     inkscape:pageopacity="0"
     inkscape:pagecheckerboard="1"
     showgrid="false"
     inkscape:zoom="1.6075631"
     inkscape:cx="235.44954"
     inkscape:cy="234.82749"
     inkscape:window-width="1920"
     inkscape:window-height="1147"
     inkscape:window-x="0"
     inkscape:window-y="25"
     inkscape:window-maximized="0"
     inkscape:current-layer="svg828" />
  <title
     id="title824">WireGuard icon</title>
  <metadata
     id="metadata914">
    <rdf:RDF>
      <cc:Work
         rdf:about="">
        <dc:title>WireGuard icon</dc:title>
      </cc:Work>
    </rdf:RDF>
  </metadata>
  <g
     id="g1954"
     transform="translate(-14.92943,29.952953)"
     clip-path="url(#clipPath1974)">
    <path
       style="fill:#000000;fill-opacity:1;stroke:none;stroke-width:31.3796;stroke-linecap:square;stroke-miterlimit:1.6;paint-order:markers stroke fill"
       d="m 225.65064,1025.0142 c -31.60791,-4.7169 -58.04866,-15.2458 -85.09286,-33.88477 -17.53855,-12.0876 -40.26477,-35.7289 -52.088819,-54.18612 C 48.717363,874.89157 43.878737,800.59522 75.382063,735.99648 c 16.70132,-34.24665 37.973947,-59.37177 67.964497,-80.273 20.7289,-14.44652 37.9463,-21.87651 68.13577,-29.40327 29.71209,-7.4078 50.11074,-16.23958 71.12788,-30.79561 21.06699,-14.59054 45.57818,-42.74013 55.92913,-64.23112 9.12604,-18.94777 13.85911,-45.03887 11.46063,-63.17668 -3.34096,-25.26543 -9.56489,-39.06015 -27.48018,-60.90723 -17.07722,-20.82512 -34.1086,-36.49114 -80.89902,-74.41359 l -46.1993,-37.44334 -19.39231,0.30162 c -10.66576,0.16588 -22.47225,0.20318 -26.23663,0.0828 -6.4211,-0.20528 -6.70326,-0.33211 -4.56291,-2.05094 1.25482,-1.00764 6.90138,-4.2376 12.54797,-7.17765 5.64659,-2.94005 13.28347,-7.22756 16.97085,-9.52782 l 6.7043,-4.18227 -2.71176,-2.16382 c -4.38935,-3.50236 -18.02281,-8.95626 -27.23737,-10.89597 -4.70547,-0.99053 -16.76864,-2.36167 -26.80699,-3.04695 -24.60269,-1.67957 -32.438189,-2.54173 -33.094669,-3.64156 -0.889584,-1.49036 11.287989,-12.34781 20.561249,-18.33226 10.3165,-6.65769 24.01414,-12.97198 32.34672,-14.91102 l 6.12459,-1.42524 -0.74436,-7.52272 c -1.12693,-11.38912 -3.94022,-25.27478 -5.92489,-29.24381 -2.58535,-5.17026 -6.56539,-8.03229 -24.65984,-17.7329 l -16.24424,-8.70869 7.62938,-3.69669 c 15.45285,-7.48734 34.0405,-8.56205 59.63497,-3.44794 20.07462,4.01114 32.43985,2.73999 45.77908,-4.70612 6.88263,-3.84196 12.49404,-8.08754 11.70387,-8.85511 -0.2457,-0.23871 -8.40333,-3.73815 -18.12797,-7.77656 -16.58193,-6.88602 -48.29908,-22.45328 -50.70516,-24.88687 -1.91185,-1.93367 2.68367,-1.24209 28.46104,4.28316 21.24656,4.55409 27.84778,5.4855 43.03664,6.07228 18.80453,0.72647 21.41426,0.19467 21.41426,-4.3638 0,-1.65322 -2.24794,-2.60516 -11.12206,-4.70989 -52.05641,-12.3465 -62.16859,-15.01784 -59.54663,-15.7304 6.05615,-1.64584 47.46009,-2.27155 60.40217,-0.91281 26.86441,2.82041 41.09049,7.04411 70.45216,20.91709 28.21536,13.33137 29.55092,14.24694 40.1207,27.50391 7.8955,9.9028 10.25739,12.07551 16.05618,14.77002 9.98717,4.6407 20.47982,6.54357 36.20923,6.56665 l 13.97384,0.0205 v -2.92748 c 0,-2.74083 0.20003,-2.83947 3.13701,-1.54717 6.73375,2.96296 18.72771,11.99562 23.68015,17.83354 5.44795,6.422 11.96746,18.55046 11.96746,22.26346 0,2.0749 -2.09595,2.1736 -46.16062,2.1736 -40.93119,0 -46.61726,0.22548 -50.19182,1.99044 -2.21718,1.09474 -4.03124,2.32564 -4.03124,2.73532 0,0.40968 1.92498,1.85835 4.27771,3.21926 3.98079,2.30266 6.41557,2.50771 35.07724,2.95412 16.93977,0.26385 31.71258,0.90547 32.82853,1.42585 1.86718,0.87063 1.78536,1.28826 -1.02558,5.23595 -4.73252,6.64639 -13.22424,15.51754 -16.63171,17.37486 -4.46658,2.43463 -7.64602,2.07958 -12.48766,-1.39451 l -4.2834,-3.07353 -35.70324,-0.0799 c -37.75163,-0.0845 -67.16743,2.24317 -72.44439,5.73257 -1.38567,0.91631 -3.13568,3.79567 -3.88888,6.3986 -1.69858,5.87016 -0.11032,11.58915 5.88597,21.19527 4.48612,7.18671 9.93931,11.76576 50.7142,42.5848 31.60335,23.88687 43.33081,33.61733 56.87962,47.19389 25.35218,25.4042 39.98095,53.21173 45.84744,87.15048 2.37792,13.75664 2.38019,43.15538 0.004,59.48575 -7.03097,48.3329 -25.89395,94.26611 -52.81856,128.61854 -13.42812,17.13252 -30.80645,34.17788 -47.29031,46.38412 -14.78369,10.94726 -26.13942,16.53686 -105.2181,51.79138 -18.78355,8.37399 -37.50645,17.48138 -41.60648,20.23866 -9.32658,6.27214 -22.2918,19.7679 -27.28378,28.40021 -11.33702,19.60442 -15.58144,36.9471 -14.77647,60.37661 0.4563,13.28114 1.0167,16.89854 3.99078,25.76112 4.62704,13.78821 11.42811,25.31206 21.26961,36.03953 20.96787,22.85545 47.74692,34.4746 76.01771,32.98324 14.36607,-0.75784 23.6577,-3.09084 36.1305,-9.07185 21.89102,-10.49727 38.07446,-27.0201 47.60083,-48.59916 5.86855,-13.29333 7.68707,-22.13822 8.3471,-40.59765 0.51781,-14.48256 0.27277,-17.90955 -1.94245,-27.16584 -8.39512,-35.07884 -32.88677,-60.55153 -69.25667,-72.03073 l -11.63126,-3.67114 10.49055,-4.53222 c 17.41971,-7.52584 35.75713,-17.59623 64.322,-35.32379 14.93796,-9.27065 28.09545,-17.21524 29.23886,-17.65464 3.02348,-1.16195 5.97878,0.84903 16.00446,10.89052 29.75587,29.80276 48.77994,65.12075 56.57949,105.03913 10.71822,54.85619 0.85301,108.90172 -28.17078,154.33071 -28.0996,43.98245 -75.34149,76.43302 -126.37743,86.80902 -16.08443,3.2702 -44.46678,4.1485 -59.85327,1.8524 z m 115.55159,-859.17713 5.47179,-3.33588 -4.61952,-4.32129 c -5.3552,-5.00943 -9.61288,-5.57289 -14.15527,-1.87329 -3.65408,2.9761 -3.83724,6.52279 -0.52537,10.17298 3.26961,3.60361 7.16005,3.42283 13.82837,-0.64252 z"
       id="path2604"
       clip-path="url(#clipPath1949)" />
  </g>
  <path
     style="fill:none;fill-opacity:1;stroke:#000000;stroke-width:40;stroke-linecap:round;stroke-miterlimit:5;stroke-dasharray:none;stroke-opacity:1;paint-order:markers stroke fill"
     id="path2000"
     transform="rotate(83)"
     sodipodi:type="arc"
     sodipodi:cx="285.29428"
     sodipodi:cy="-222.89725"
     sodipodi:rx="236"
     sodipodi:ry="236"
     sodipodi:start="0"
     sodipodi:end="5.4699309"
     sodipodi:arc-type="arc"
     d="M 521.29428,-222.89725 A 236,236 0 0 1 332.94641,8.2418341 236,236 0 0 1 68.537713,-129.55599 a 236,236 0 0 1 81.571297,-286.78619 236,236 0 0 1 297.34976,21.9845"
     sodipodi:open="true" />
</svg>
